<?xml version="1.0" encoding="UTF-8" standalone="no"?>
<!-- Created with Inkscape (http://www.inkscape.org/) -->

<svg
   xmlns:dc="http://purl.org/dc/elements/1.1/"
   xmlns:cc="http://creativecommons.org/ns#"
   xmlns:rdf="http://www.w3.org/1999/02/22-rdf-syntax-ns#"
   xmlns:svg="http://www.w3.org/2000/svg"
   xmlns="http://www.w3.org/2000/svg"
   xmlns:sodipodi="http://sodipodi.sourceforge.net/DTD/sodipodi-0.dtd"
   xmlns:inkscape="http://www.inkscape.org/namespaces/inkscape"
   width="48"
   height="48"
   viewBox="0 0 48 48.000001"
   id="svg2"
   version="1.1"
   inkscape:version="0.91 r13725"
   sodipodi:docname="Crescita5.svg"
   inkscape:export-filename="E:\99\1-to-1\CSINVESTIMENTI\ICONSS\confidential1-4.png"
   inkscape:export-xdpi="90"
   inkscape:export-ydpi="90">
  <defs
     id="defs4" />
  <sodipodi:namedview
     id="base"
     pagecolor="#ffffff"
     bordercolor="#666666"
     borderopacity="1.0"
     inkscape:pageopacity="0.0"
     inkscape:pageshadow="2"
     inkscape:zoom="22.627417"
     inkscape:cx="19.791705"
     inkscape:cy="16.480516"
     inkscape:document-units="px"
     inkscape:current-layer="layer1"
     showgrid="true"
     units="px"
     inkscape:window-width="1360"
     inkscape:window-height="715"
     inkscape:window-x="-8"
     inkscape:window-y="-8"
     inkscape:window-maximized="1"
     inkscape:snap-bbox="true"
     inkscape:bbox-paths="true"
     inkscape:snap-bbox-edge-midpoints="true"
     inkscape:bbox-nodes="true"
     inkscape:snap-bbox-midpoints="true"
     inkscape:object-paths="true"
     inkscape:snap-intersection-paths="true"
     inkscape:object-nodes="true"
     inkscape:snap-smooth-nodes="true"
     inkscape:snap-global="false">
    <inkscape:grid
       type="xygrid"
       id="grid4136"
       empspacing="4"
       spacingx="0.5"
       spacingy="0.50000001" />
  </sodipodi:namedview>
  <metadata
     id="metadata7">
    <rdf:RDF>
      <cc:Work
         rdf:about="">
        <dc:format>image/svg+xml</dc:format>
        <dc:type
           rdf:resource="http://purl.org/dc/dcmitype/StillImage" />
        <dc:title />
        <cc:license
           rdf:resource="http://creativecommons.org/licenses/by/3.0/" />
      </cc:Work>
      <cc:License
         rdf:about="http://creativecommons.org/licenses/by/3.0/">
        <cc:permits
           rdf:resource="http://creativecommons.org/ns#Reproduction" />
        <cc:permits
           rdf:resource="http://creativecommons.org/ns#Distribution" />
        <cc:requires
           rdf:resource="http://creativecommons.org/ns#Notice" />
        <cc:requires
           rdf:resource="http://creativecommons.org/ns#Attribution" />
        <cc:permits
           rdf:resource="http://creativecommons.org/ns#DerivativeWorks" />
      </cc:License>
    </rdf:RDF>
  </metadata>
  <g
     inkscape:label="Layer 1"
     inkscape:groupmode="layer"
     id="layer1"
     transform="translate(0,-1004.3622)">
    <path
       sodipodi:nodetypes="csccc"
       inkscape:connector-curvature="0"
       id="path4195"
       d="m 37.347746,1037.4003 c 2.1e-5,2.0838 -1.689194,3.7731 -3.772956,3.7731 -1.32013,0 -2.481906,-0.6781 -3.156114,-1.7048 4.24655,2.2077 7.670892,-1.532 5.062439,-5.3249 1.116797,0.6552 1.866645,1.8684 1.866631,3.2566 z"
       style="opacity:1;fill:#daf1e7;fill-opacity:1;stroke:none;stroke-width:1.5;stroke-linecap:round;stroke-linejoin:round;stroke-miterlimit:4;stroke-dasharray:none;stroke-opacity:1" />
    <path
       style="opacity:1;fill:#daf1e7;fill-opacity:1;stroke:none;stroke-width:1.5;stroke-linecap:round;stroke-linejoin:round;stroke-miterlimit:4;stroke-dasharray:none;stroke-opacity:1"
       d="m 17.548756,1037.4003 c 2.1e-5,2.0838 -1.689194,3.7731 -3.772956,3.7731 -1.32013,0 -2.481906,-0.6781 -3.156114,-1.7048 4.24655,2.2077 7.670892,-1.532 5.062439,-5.3249 1.116797,0.6552 1.866645,1.8684 1.866631,3.2566 z"
       id="path4189"
       inkscape:connector-curvature="0"
       sodipodi:nodetypes="csccc" />
    <path
       sodipodi:nodetypes="csccc"
       inkscape:connector-curvature="0"
       id="path4187"
       d="m 34.505248,1019.8569 c 6e-5,5.8019 -4.703317,10.5053 -10.505248,10.5053 -3.675713,0 -6.910507,-1.8878 -8.787741,-4.7467 11.823901,6.1472 21.358484,-4.2657 14.095628,-14.8264 3.109556,1.8242 5.197401,5.2021 5.197361,9.0678 z"
       style="opacity:1;fill:#daf1e7;fill-opacity:1;stroke:none;stroke-width:1.5;stroke-linecap:round;stroke-linejoin:round;stroke-miterlimit:4;stroke-dasharray:none;stroke-opacity:1" />
    <g
       transform="matrix(0.4,0,0,0.4,256.8,674.61733)"
       id="g4157">
      <rect
         y="852.36218"
         x="-712"
         height="32.000008"
         width="40"
         id="rect4153"
         style="opacity:1;fill:#3a8564;fill-opacity:1;stroke:none;stroke-width:1.5;stroke-linecap:round;stroke-linejoin:round;stroke-miterlimit:4;stroke-dasharray:none;stroke-opacity:1" />
      <rect
         style="opacity:1;fill:#eef4f2;fill-opacity:1;stroke:none;stroke-width:1.5;stroke-linecap:round;stroke-linejoin:round;stroke-miterlimit:4;stroke-dasharray:none;stroke-opacity:1"
         id="rect4155"
         width="40"
         height="32.000008"
         x="-712"
         y="884.36218" />
      <rect
         y="913.36218"
         x="-712"
         height="32.000008"
         width="40"
         id="rect4246"
         style="opacity:1;fill:#398763;fill-opacity:0.19215687;stroke:none;stroke-width:1.5;stroke-linecap:round;stroke-linejoin:round;stroke-miterlimit:4;stroke-dasharray:none;stroke-opacity:1" />
    </g>
    <path
       style="fill:none;fill-rule:evenodd;stroke:#3a8564;stroke-width:1.5;stroke-linecap:round;stroke-linejoin:miter;stroke-miterlimit:4;stroke-dasharray:none;stroke-opacity:1"
       d="m 5,1047.3622 38,0"
       id="path4147"
       inkscape:connector-curvature="0"
       sodipodi:nodetypes="cc" />
    <path
       style="opacity:1;fill:none;fill-opacity:1;stroke:#348763;stroke-width:1.5;stroke-linecap:round;stroke-linejoin:round;stroke-miterlimit:4;stroke-dasharray:none;stroke-opacity:1"
       d="m 34.505248,1019.8569 c 6e-5,5.8019 -4.703317,10.5053 -10.505248,10.5053 -5.801931,0 -10.505308,-4.7034 -10.505248,-10.5053 -6e-5,-5.802 4.703317,-10.5054 10.505248,-10.5054 5.801931,0 10.505308,4.7034 10.505248,10.5054 z"
       id="path4152"
       inkscape:connector-curvature="0"
       sodipodi:nodetypes="cscsc" />
    <path
       sodipodi:nodetypes="cc"
       inkscape:connector-curvature="0"
       id="path4150"
       d="m 24,1047.3622 0,-33"
       style="fill:none;fill-rule:evenodd;stroke:#3a8564;stroke-width:1.5;stroke-linecap:round;stroke-linejoin:miter;stroke-miterlimit:4;stroke-dasharray:none;stroke-opacity:1" />
    <path
       style="fill:none;fill-rule:evenodd;stroke:#3a8564;stroke-width:1.5;stroke-linecap:round;stroke-linejoin:miter;stroke-miterlimit:4;stroke-dasharray:none;stroke-opacity:1"
       d="m 28,1016.9872 -4,2"
       id="path4166"
       inkscape:connector-curvature="0"
       sodipodi:nodetypes="cc" />
    <path
       sodipodi:nodetypes="cc"
       inkscape:connector-curvature="0"
       id="path4168"
       d="m 20,1022.1122 4,2"
       style="fill:none;fill-rule:evenodd;stroke:#3a8564;stroke-width:1.5;stroke-linecap:round;stroke-linejoin:miter;stroke-miterlimit:4;stroke-dasharray:none;stroke-opacity:1" />
    <path
       sodipodi:nodetypes="cscsc"
       inkscape:connector-curvature="0"
       id="path4162"
       d="m 37.80434,1037.7372 c 2.3e-5,2.2091 -1.790828,4 -3.999961,4 -2.209133,0 -3.999984,-1.7909 -3.999961,-4 -2.3e-5,-2.2091 1.790828,-4 3.999961,-4 2.209133,0 3.999984,1.7909 3.999961,4 z"
       style="opacity:1;fill:none;fill-opacity:1;stroke:#348763;stroke-width:1.5;stroke-linecap:round;stroke-linejoin:round;stroke-miterlimit:4;stroke-dasharray:none;stroke-opacity:1" />
    <path
       sodipodi:nodetypes="cc"
       inkscape:connector-curvature="0"
       id="path4164"
       d="m 33.804379,1047.3622 0,-5.4127"
       style="fill:none;fill-rule:evenodd;stroke:#3a8564;stroke-width:1.5;stroke-linecap:round;stroke-linejoin:miter;stroke-miterlimit:4;stroke-dasharray:none;stroke-opacity:1" />
    <path
       sodipodi:nodetypes="cc"
       inkscape:connector-curvature="0"
       id="path4157"
       d="m 67.5,1047.3622 38,0"
       style="fill:none;fill-rule:evenodd;stroke:#3a8564;stroke-width:1.5;stroke-linecap:round;stroke-linejoin:miter;stroke-miterlimit:4;stroke-dasharray:none;stroke-opacity:1" />
    <path
       sodipodi:nodetypes="cscsc"
       inkscape:connector-curvature="0"
       id="path4159"
       d="m 97.005248,1019.8569 c 6e-5,5.8019 -4.703317,10.5053 -10.505248,10.5053 -5.801931,0 -10.505308,-4.7034 -10.505248,-10.5053 -6e-5,-5.802 4.703317,-10.5054 10.505248,-10.5054 5.801931,0 10.505308,4.7034 10.505248,10.5054 z"
       style="opacity:1;fill:#ffffff;fill-opacity:1;stroke:#348763;stroke-width:1.5;stroke-linecap:round;stroke-linejoin:round;stroke-miterlimit:4;stroke-dasharray:none;stroke-opacity:1" />
    <path
       style="opacity:1;fill:#ffffff;fill-opacity:1;stroke:#348763;stroke-width:1.5;stroke-linecap:round;stroke-linejoin:round;stroke-miterlimit:4;stroke-dasharray:none;stroke-opacity:1"
       d="m 81.812451,1026.8202 c 2.3e-5,2.1514 -1.744054,3.8956 -3.895489,3.8956 -2.151434,0 -3.895511,-1.7442 -3.895488,-3.8956 -2.3e-5,-2.1514 1.744054,-3.8955 3.895488,-3.8955 2.151435,0 3.895512,1.7441 3.895489,3.8955 z"
       id="path4161"
       inkscape:connector-curvature="0"
       sodipodi:nodetypes="cscsc" />
    <path
       sodipodi:nodetypes="cscsc"
       inkscape:connector-curvature="0"
       id="path4163"
       d="m 77.17935,1039.2738 c 1.7e-5,1.6568 -1.343121,3 -2.999971,3 -1.656851,0 -2.999988,-1.3432 -2.999971,-3 -1.7e-5,-1.6568 1.34312,-3 2.999971,-3 1.65685,0 2.999988,1.3432 2.999971,3 z"
       style="opacity:1;fill:#ffffff;fill-opacity:1;stroke:#348763;stroke-width:1.5;stroke-linecap:round;stroke-linejoin:round;stroke-miterlimit:4;stroke-dasharray:none;stroke-opacity:1" />
    <path
       style="opacity:1;fill:#ffffff;fill-opacity:1;stroke:#348763;stroke-width:1.5;stroke-linecap:round;stroke-linejoin:round;stroke-miterlimit:4;stroke-dasharray:none;stroke-opacity:1"
       d="m 104.17934,1034.3622 c 2e-5,2.2091 -1.79083,4 -3.99996,4 -2.209134,0 -3.999985,-1.7909 -3.999962,-4 -2.3e-5,-2.2091 1.790828,-4 3.999962,-4 2.20913,0 3.99998,1.7909 3.99996,4 z"
       id="path4165"
       inkscape:connector-curvature="0"
       sodipodi:nodetypes="cscsc" />
    <path
       style="fill:none;fill-rule:evenodd;stroke:#3a8564;stroke-width:1.5;stroke-linecap:round;stroke-linejoin:miter;stroke-miterlimit:4;stroke-dasharray:none;stroke-opacity:1"
       d="m 86.5,1047.3622 0,-33"
       id="path4167"
       inkscape:connector-curvature="0"
       sodipodi:nodetypes="cc" />
    <path
       sodipodi:nodetypes="cc"
       inkscape:connector-curvature="0"
       id="path4169"
       d="m 90.5,1016.3622 -4,2"
       style="fill:none;fill-rule:evenodd;stroke:#3a8564;stroke-width:1.5;stroke-linecap:round;stroke-linejoin:miter;stroke-miterlimit:4;stroke-dasharray:none;stroke-opacity:1" />
    <path
       style="fill:none;fill-rule:evenodd;stroke:#3a8564;stroke-width:1.5;stroke-linecap:round;stroke-linejoin:miter;stroke-miterlimit:4;stroke-dasharray:none;stroke-opacity:1"
       d="m 82.5,1019.3622 4,2"
       id="path4171"
       inkscape:connector-curvature="0"
       sodipodi:nodetypes="cc" />
    <path
       style="fill:none;fill-rule:evenodd;stroke:#3a8564;stroke-width:1.5;stroke-linecap:round;stroke-linejoin:miter;stroke-miterlimit:4;stroke-dasharray:none;stroke-opacity:1"
       d="m 100.17938,1047.3622 0,-13"
       id="path4173"
       inkscape:connector-curvature="0"
       sodipodi:nodetypes="cc" />
    <path
       sodipodi:nodetypes="cc"
       inkscape:connector-curvature="0"
       id="path4175"
       d="m 74.179379,1047.3622 0,-7.5"
       style="fill:none;fill-rule:evenodd;stroke:#3a8564;stroke-width:1.5;stroke-linecap:round;stroke-linejoin:miter;stroke-miterlimit:4;stroke-dasharray:none;stroke-opacity:1" />
    <path
       style="opacity:1;fill:none;fill-opacity:1;stroke:#348763;stroke-width:1.5;stroke-linecap:round;stroke-linejoin:round;stroke-miterlimit:4;stroke-dasharray:none;stroke-opacity:1"
       d="m 18.17934,1037.7372 c 2.3e-5,2.2091 -1.790828,4 -3.999961,4 -2.209133,0 -3.999984,-1.7909 -3.999961,-4 -2.3e-5,-2.2091 1.790828,-4 3.999961,-4 2.209133,0 3.999984,1.7909 3.999961,4 z"
       id="path4183"
       inkscape:connector-curvature="0"
       sodipodi:nodetypes="cscsc" />
    <path
       style="fill:none;fill-rule:evenodd;stroke:#3a8564;stroke-width:1.5;stroke-linecap:round;stroke-linejoin:miter;stroke-miterlimit:4;stroke-dasharray:none;stroke-opacity:1"
       d="m 14.179379,1047.3622 0,-5.4127"
       id="path4185"
       inkscape:connector-curvature="0"
       sodipodi:nodetypes="cc" />
  </g>
</svg>
