<?xml version="1.0" encoding="UTF-8" standalone="no"?>
<!-- Created with Inkscape (http://www.inkscape.org/) -->

<svg
   xmlns:dc="http://purl.org/dc/elements/1.1/"
   xmlns:cc="http://creativecommons.org/ns#"
   xmlns:rdf="http://www.w3.org/1999/02/22-rdf-syntax-ns#"
   xmlns:svg="http://www.w3.org/2000/svg"
   xmlns="http://www.w3.org/2000/svg"
   xmlns:sodipodi="http://sodipodi.sourceforge.net/DTD/sodipodi-0.dtd"
   xmlns:inkscape="http://www.inkscape.org/namespaces/inkscape"
   width="48"
   height="48"
   viewBox="0 0 48 48.000001"
   id="svg2"
   version="1.1"
   inkscape:version="0.91 r13725"
   sodipodi:docname="Cultura.svg"
   inkscape:export-filename="E:\99\1-to-1\CSINVESTIMENTI\ICONSS\confidential1-4.png"
   inkscape:export-xdpi="90"
   inkscape:export-ydpi="90">
  <defs
     id="defs4" />
  <sodipodi:namedview
     id="base"
     pagecolor="#ffffff"
     bordercolor="#666666"
     borderopacity="1.0"
     inkscape:pageopacity="0.0"
     inkscape:pageshadow="2"
     inkscape:zoom="11.313708"
     inkscape:cx="8.4613945"
     inkscape:cy="23.910758"
     inkscape:document-units="px"
     inkscape:current-layer="layer1"
     showgrid="true"
     units="px"
     inkscape:window-width="1360"
     inkscape:window-height="715"
     inkscape:window-x="-8"
     inkscape:window-y="-8"
     inkscape:window-maximized="1"
     inkscape:snap-bbox="true"
     inkscape:bbox-paths="true"
     inkscape:snap-bbox-edge-midpoints="true"
     inkscape:bbox-nodes="true"
     inkscape:snap-bbox-midpoints="true"
     inkscape:object-paths="true"
     inkscape:snap-intersection-paths="true"
     inkscape:object-nodes="true"
     inkscape:snap-smooth-nodes="true"
     inkscape:snap-global="false">
    <inkscape:grid
       type="xygrid"
       id="grid4136"
       empspacing="4"
       spacingx="0.5"
       spacingy="0.50000001" />
  </sodipodi:namedview>
  <metadata
     id="metadata7">
    <rdf:RDF>
      <cc:Work
         rdf:about="">
        <dc:format>image/svg+xml</dc:format>
        <dc:type
           rdf:resource="http://purl.org/dc/dcmitype/StillImage" />
        <dc:title />
        <cc:license
           rdf:resource="http://creativecommons.org/licenses/by/3.0/" />
      </cc:Work>
      <cc:License
         rdf:about="http://creativecommons.org/licenses/by/3.0/">
        <cc:permits
           rdf:resource="http://creativecommons.org/ns#Reproduction" />
        <cc:permits
           rdf:resource="http://creativecommons.org/ns#Distribution" />
        <cc:requires
           rdf:resource="http://creativecommons.org/ns#Notice" />
        <cc:requires
           rdf:resource="http://creativecommons.org/ns#Attribution" />
        <cc:permits
           rdf:resource="http://creativecommons.org/ns#DerivativeWorks" />
      </cc:License>
    </rdf:RDF>
  </metadata>
  <g
     inkscape:label="Layer 1"
     inkscape:groupmode="layer"
     id="layer1"
     transform="translate(0,-1004.3622)">
    <path
       style="opacity:1;fill:#348763;fill-opacity:0.19215686;stroke:none;stroke-width:1.5;stroke-linecap:round;stroke-linejoin:round;stroke-miterlimit:4;stroke-dasharray:none;stroke-opacity:1"
       d="M 28.40901,1013.0693 34,1012.3622 l 4,2 2,4 1.06066,7.149 1.684519,6.0051 -7.576739,2.4864 3.029911,2.31 5.573681,2.966 1.419428,4.9989 -3.391148,0.3068 c 1.237436,-5.215 -7.655989,-5.9307 -7.655989,-5.9307 l -1.219317,-4.9232 c 0,0 5.112228,-2.1393 5.377393,-4.2606 -2.65165,-5.922 2.895623,-14.1103 -9.893389,-16.4006 z"
       id="rect4141"
       inkscape:connector-curvature="0"
       sodipodi:nodetypes="ccccccccccccccc" />
    <g
       transform="matrix(0.4,0,0,0.4,256.8,674.61733)"
       id="g4157">
      <rect
         y="852.36218"
         x="-712"
         height="32.000008"
         width="40"
         id="rect4153"
         style="opacity:1;fill:#3a8564;fill-opacity:1;stroke:none;stroke-width:1.5;stroke-linecap:round;stroke-linejoin:round;stroke-miterlimit:4;stroke-dasharray:none;stroke-opacity:1" />
      <rect
         style="opacity:1;fill:#eef4f2;fill-opacity:1;stroke:none;stroke-width:1.5;stroke-linecap:round;stroke-linejoin:round;stroke-miterlimit:4;stroke-dasharray:none;stroke-opacity:1"
         id="rect4155"
         width="40"
         height="32.000008"
         x="-712"
         y="884.36218" />
      <rect
         y="913.36218"
         x="-712"
         height="32.000008"
         width="40"
         id="rect4246"
         style="opacity:1;fill:#398763;fill-opacity:0.19215687;stroke:none;stroke-width:1.5;stroke-linecap:round;stroke-linejoin:round;stroke-miterlimit:4;stroke-dasharray:none;stroke-opacity:1" />
    </g>
    <g
       id="g4175"
       transform="matrix(1.0969358,0,0,1.0969358,-2.3589589,-95.017089)"
       style="stroke:#3a8564;stroke-width:1.36744557;stroke-miterlimit:4;stroke-dasharray:none;stroke-opacity:1">
      <path
         sodipodi:nodetypes="cccczcccccc"
         inkscape:connector-curvature="0"
         id="path10375-0"
         d="m 4.7237595,1038.7706 c 0,-6.7462 3.1390973,-7.0638 9.2105375,-8.3024 l 0.603133,-2.4362 c -5.1597015,-3.6501 -5.0955373,-4.3958 -5.0955373,-13.77 0.8661483,-2.1654 4.0552293,-4.8392 7.9923983,-4.8392 3.93721,0 7.126271,2.6738 7.99244,4.8392 0,9.3742 0.06418,10.1199 -5.095558,13.77 l 0.603132,2.4362 c 6.071441,1.2386 9.210579,1.5562 9.210579,8.3024 l -12.710593,0 z"
         style="opacity:1;fill:none;fill-opacity:1;stroke:#3a8564;stroke-width:1.36744557;stroke-linecap:round;stroke-linejoin:round;stroke-miterlimit:4;stroke-dasharray:none;stroke-dashoffset:0;stroke-opacity:1" />
      <path
         sodipodi:nodetypes="cccccssc"
         inkscape:connector-curvature="0"
         id="path10459-7"
         d="m 34.257297,1038.7905 9.078199,0 c 0,-5.923 -3.22336,-6.4918 -9.022559,-8.0854 l -0.588089,-1.743 c 0,0 4.090811,0.2655 7.637861,-1.8997 0,0 -1.882548,-2.8875 -1.882548,-8.3079 0,-8.6713 -6.624771,-9.3095 -8.585563,-9.3095 -0.722897,0 -2.080236,0.086 -3.50567,0.6312"
         style="opacity:1;fill:none;fill-opacity:1;stroke:#3a8564;stroke-width:1.36744557;stroke-linecap:round;stroke-linejoin:round;stroke-miterlimit:4;stroke-dasharray:none;stroke-dashoffset:0;stroke-opacity:1" />
    </g>
    <path
       sodipodi:nodetypes="ccccccccccccccccc"
       inkscape:connector-curvature="0"
       id="path4142"
       d="m 8.2564657,1017.1352 2.5489903,-3.3397 7.638194,-1.4333 4,2 2.883884,2.9393 0.176776,8.2097 -1.409073,4.1489 -4.041205,3.0168 0.731814,2.7519 6.457564,1.6402 2.3917,1.8169 1.172896,5.452 -2.707888,-0.1071 c -0.08839,-4.6845 -10.406751,-5.6825 -10.406751,-5.6825 l -0.285496,-5.4794 c 4.790172,-2.1885 4.852133,-7.8511 4.760007,-11.4379 -0.172491,-5.5763 -6.385166,-8.4821 -13.9114123,-4.4958 z"
       style="opacity:1;fill:#348763;fill-opacity:0.19215686;stroke:none;stroke-width:1.5;stroke-linecap:round;stroke-linejoin:round;stroke-miterlimit:4;stroke-dasharray:none;stroke-opacity:1" />
  </g>
</svg>
